<?xml version="1.0" encoding="UTF-8" standalone="no"?>
<!-- Generator: Adobe Illustrator 27.5.0, SVG Export Plug-In . SVG Version: 6.00 Build 0)  -->

<svg
   version="1.1"
   x="0px"
   y="0px"
   viewBox="0 0 500 500"
   style="enable-background:new 0 0 500 500;"
   xml:space="preserve"
   id="svg16"
   sodipodi:docname="15858504_5691350.svg"
   inkscape:version="1.3.2 (091e20ef0f, 2023-11-25)"
   xmlns:inkscape="http://www.inkscape.org/namespaces/inkscape"
   xmlns:sodipodi="http://sodipodi.sourceforge.net/DTD/sodipodi-0.dtd"
   xmlns="http://www.w3.org/2000/svg"
   xmlns:svg="http://www.w3.org/2000/svg"><defs
   id="defs16" /><sodipodi:namedview
   id="namedview16"
   pagecolor="#ffffff"
   bordercolor="#000000"
   borderopacity="0.25"
   inkscape:showpageshadow="2"
   inkscape:pageopacity="0.0"
   inkscape:pagecheckerboard="0"
   inkscape:deskcolor="#d1d1d1"
   inkscape:zoom="1.3742489"
   inkscape:cx="281.24454"
   inkscape:cy="199.38164"
   inkscape:window-width="2560"
   inkscape:window-height="1368"
   inkscape:window-x="2560"
   inkscape:window-y="0"
   inkscape:window-maximized="1"
   inkscape:current-layer="svg16" />
<g
   id="BACKGROUND"
   style="display:none">
	<radialGradient
   id="SVGID_1_"
   cx="248.05701"
   cy="248.201"
   r="304.34079"
   gradientUnits="userSpaceOnUse">
		<stop
   offset="0"
   style="stop-color:#131313"
   id="stop1" />
		<stop
   offset="1"
   style="stop-color:#060606"
   id="stop2" />
	</radialGradient>
	<rect
   style="fill:url(#SVGID_1_)"
   width="500"
   height="500"
   id="rect2"
   x="0"
   y="0" />
</g>
<g
   id="OBJECTS"
   transform="matrix(1.2237146,0,0,1.2237176,-55.928654,-55.928791)">

		<linearGradient
   id="SVGID_00000102540132264619247600000000565373872407932599_"
   gradientUnits="userSpaceOnUse"
   x1="36.285999"
   y1="51.377602"
   x2="458.8768"
   y2="444.1268">
		<stop
   offset="0"
   style="stop-color:#2C1B13"
   id="stop3" />
		<stop
   offset="0.1455"
   style="stop-color:#A57B2D"
   id="stop4" />
		<stop
   offset="0.1719"
   style="stop-color:#A77E30"
   id="stop5" />
		<stop
   offset="0.1922"
   style="stop-color:#AF8838"
   id="stop6" />
		<stop
   offset="0.2104"
   style="stop-color:#BB9846"
   id="stop7" />
		<stop
   offset="0.2274"
   style="stop-color:#CDAF5A"
   id="stop8" />
		<stop
   offset="0.2434"
   style="stop-color:#E3CD73"
   id="stop9" />
		<stop
   offset="0.2545"
   style="stop-color:#F6E689"
   id="stop10" />
		<stop
   offset="0.3876"
   style="stop-color:#E9BC68"
   id="stop11" />
		<stop
   offset="0.6685"
   style="stop-color:#8B5A25"
   id="stop12" />
		<stop
   offset="0.7022"
   style="stop-color:#AD7A35"
   id="stop13" />
		<stop
   offset="0.7697"
   style="stop-color:#DFA44D"
   id="stop14" />
		<stop
   offset="0.8424"
   style="stop-color:#E0C86F"
   id="stop15" />
		<stop
   offset="0.9719"
   style="stop-color:#472817"
   id="stop16" />
	</linearGradient>
	<path
   style="fill:url(#SVGID_00000102540132264619247600000000565373872407932599_)"
   d="m 83.442,80.523 c 4.465,3.559 9.158,2.733 10.858,0.927 2.123,-2.256 1.572,-4.542 2.12,-7.162 0.561,-2.684 2.201,-2.465 2.201,-2.465 -0.93,0.875 -0.642,3.149 -0.013,4.516 0.629,1.367 2.534,5.452 -1.149,8.123 -4.143,3.005 -10.366,0 -10.366,0 4.294,2.362 7.927,1.829 9.627,1.419 2.379,-0.574 3.147,-0.432 3.856,0 0.944,0.574 1.325,1.611 2.605,1.682 1.108,0.062 1.426,0.081 1.456,0.369 0.041,0.39 -0.482,0.376 -1.559,0.615 -1.477,0.328 -1.518,2.174 -5.395,2.174 -1.728,0 -3.101,-0.503 -3.921,-0.905 1.549,0.854 3.275,1.656 4.981,3.178 2.024,1.805 2.349,4.157 2.516,5.716 0.157,1.467 0.808,1.944 1.368,2.516 0.509,0.521 0.235,0.794 0.214,0.813 v 0 c 0,0 -0.271,0.302 -0.814,-0.213 -0.355,-0.336 -0.668,-0.713 -1.192,-0.992 0.278,0.524 0.655,0.837 0.992,1.192 0.515,0.544 0.213,0.815 0.213,0.815 v 0 c -0.019,0.021 -0.293,0.295 -0.813,-0.214 -0.572,-0.559 -1.05,-1.21 -2.516,-1.368 -1.559,-0.167 -3.911,-0.492 -5.716,-2.516 -1.522,-1.706 -2.325,-3.432 -3.178,-4.981 0.401,0.82 0.905,2.193 0.905,3.921 0,3.877 -1.846,3.918 -2.174,5.395 -0.239,1.076 -0.226,1.6 -0.615,1.559 -0.289,-0.03 -0.308,-0.348 -0.369,-1.456 -0.071,-1.28 -1.108,-1.661 -1.682,-2.605 -0.432,-0.71 -0.574,-1.477 0,-3.856 0.41,-1.7 0.944,-5.334 -1.419,-9.627 0,0 3.005,6.222 0,10.366 -2.671,3.683 -6.755,1.778 -8.123,1.149 -1.368,-0.629 -3.641,-0.917 -4.516,0.013 0,0 -0.219,-1.641 2.465,-2.201 2.62,-0.547 4.906,0.004 7.162,-2.12 1.806,-1.7 2.632,-6.392 -0.927,-10.858 z m 333.115,0 c -4.465,3.559 -9.158,2.733 -10.858,0.927 -2.123,-2.256 -1.572,-4.542 -2.12,-7.162 -0.561,-2.684 -2.201,-2.465 -2.201,-2.465 0.93,0.875 0.642,3.149 0.013,4.516 -0.629,1.367 -2.534,5.452 1.149,8.123 4.143,3.005 10.366,0 10.366,0 -4.294,2.362 -7.927,1.829 -9.627,1.419 -2.379,-0.574 -3.147,-0.432 -3.856,0 -0.944,0.574 -1.325,1.611 -2.605,1.682 -1.108,0.062 -1.426,0.081 -1.456,0.369 -0.041,0.39 0.483,0.376 1.559,0.615 1.477,0.328 1.518,2.174 5.395,2.174 1.728,0 3.101,-0.503 3.921,-0.905 -1.549,0.854 -3.275,1.656 -4.981,3.178 -2.024,1.805 -2.349,4.157 -2.516,5.716 -0.157,1.467 -0.808,1.944 -1.368,2.516 -0.509,0.521 -0.235,0.794 -0.214,0.813 v 0 c 0,0 0.271,0.302 0.815,-0.213 0.355,-0.336 0.668,-0.713 1.192,-0.992 -0.278,0.524 -0.655,0.837 -0.992,1.192 -0.515,0.544 -0.213,0.815 -0.213,0.815 v 0 c 0.019,0.021 0.293,0.295 0.813,-0.214 0.572,-0.559 1.05,-1.21 2.516,-1.368 1.559,-0.167 3.911,-0.492 5.716,-2.516 1.522,-1.706 2.325,-3.432 3.178,-4.981 -0.401,0.82 -0.905,2.193 -0.905,3.921 0,3.877 1.846,3.918 2.174,5.395 0.239,1.076 0.226,1.6 0.615,1.559 0.289,-0.03 0.308,-0.348 0.369,-1.456 0.071,-1.28 1.108,-1.661 1.682,-2.605 0.432,-0.71 0.574,-1.477 0,-3.856 -0.41,-1.7 -0.944,-5.334 1.419,-9.627 0,0 -3.005,6.222 0,10.366 2.671,3.683 6.755,1.778 8.123,1.149 1.367,-0.629 3.641,-0.917 4.516,0.013 0,0 0.219,-1.641 -2.465,-2.201 -2.62,-0.547 -4.906,0.004 -7.162,-2.12 -1.806,-1.7 -2.632,-6.392 0.927,-10.858 z m 2.92,336.034 c -3.559,-4.465 -2.733,-9.158 -0.927,-10.858 2.256,-2.123 4.542,-1.572 7.162,-2.12 2.684,-0.561 2.465,-2.201 2.465,-2.201 -0.875,0.93 -3.149,0.642 -4.516,0.013 -1.367,-0.629 -5.452,-2.534 -8.123,1.149 -3.005,4.143 0,10.366 0,10.366 -2.362,-4.294 -1.829,-7.927 -1.419,-9.627 0.574,-2.379 0.432,-3.147 0,-3.856 -0.574,-0.944 -1.611,-1.325 -1.682,-2.605 -0.062,-1.108 -0.081,-1.426 -0.369,-1.456 -0.39,-0.041 -0.376,0.482 -0.615,1.559 -0.328,1.477 -2.174,1.518 -2.174,5.395 0,1.728 0.503,3.101 0.905,3.921 -0.854,-1.549 -1.656,-3.275 -3.178,-4.981 -1.805,-2.024 -4.158,-2.349 -5.716,-2.516 -1.467,-0.157 -1.944,-0.808 -2.516,-1.367 -0.521,-0.509 -0.794,-0.235 -0.813,-0.214 v 0 c 0,0 -0.302,0.271 0.213,0.814 0.336,0.355 0.713,0.668 0.992,1.192 -0.524,-0.278 -0.837,-0.655 -1.192,-0.992 -0.544,-0.515 -0.815,-0.213 -0.815,-0.213 v 0 c -0.021,0.019 -0.295,0.293 0.214,0.813 0.559,0.572 1.21,1.05 1.368,2.516 0.167,1.559 0.492,3.911 2.516,5.716 1.706,1.522 3.432,2.325 4.981,3.178 -0.82,-0.401 -2.193,-0.905 -3.921,-0.905 -3.877,0 -3.918,1.846 -5.395,2.174 -1.077,0.239 -1.6,0.226 -1.559,0.615 0.03,0.289 0.349,0.308 1.456,0.369 1.28,0.071 1.661,1.108 2.605,1.682 0.71,0.432 1.477,0.574 3.856,0 1.7,-0.41 5.333,-0.944 9.627,1.419 0,0 -6.222,-3.005 -10.366,0 -3.683,2.671 -1.778,6.756 -1.149,8.123 0.629,1.367 0.916,3.641 -0.013,4.516 0,0 1.641,0.219 2.201,-2.465 0.547,-2.62 -0.004,-4.906 2.12,-7.162 1.7,-1.806 6.392,-2.632 10.858,0.927 z m -336.035,2.92 c 4.465,-3.559 9.158,-2.733 10.858,-0.927 2.123,2.256 1.572,4.542 2.12,7.162 0.561,2.684 2.201,2.465 2.201,2.465 -0.93,-0.875 -0.642,-3.149 -0.013,-4.516 0.629,-1.367 2.534,-5.452 -1.149,-8.123 -4.143,-3.005 -10.366,0 -10.366,0 4.294,-2.362 7.927,-1.829 9.627,-1.419 2.379,0.574 3.147,0.432 3.856,0 0.944,-0.574 1.325,-1.611 2.605,-1.682 1.108,-0.062 1.426,-0.081 1.456,-0.369 0.041,-0.39 -0.482,-0.376 -1.559,-0.615 -1.477,-0.328 -1.518,-2.174 -5.395,-2.174 -1.728,0 -3.101,0.503 -3.921,0.905 1.549,-0.854 3.275,-1.656 4.981,-3.178 2.024,-1.805 2.349,-4.158 2.516,-5.716 0.157,-1.467 0.808,-1.944 1.368,-2.516 0.509,-0.521 0.235,-0.794 0.214,-0.813 v 0 c 0,0 -0.271,-0.302 -0.814,0.213 -0.355,0.336 -0.668,0.713 -1.192,0.992 0.278,-0.524 0.655,-0.837 0.992,-1.192 0.515,-0.544 0.213,-0.814 0.213,-0.814 v 0 c -0.019,-0.021 -0.293,-0.295 -0.813,0.214 -0.572,0.559 -1.05,1.21 -2.516,1.367 -1.559,0.167 -3.911,0.492 -5.716,2.516 -1.522,1.706 -2.325,3.432 -3.178,4.981 0.401,-0.82 0.905,-2.193 0.905,-3.921 0,-3.877 -1.846,-3.918 -2.174,-5.395 -0.239,-1.077 -0.226,-1.6 -0.615,-1.559 -0.289,0.03 -0.308,0.348 -0.369,1.456 -0.071,1.28 -1.108,1.661 -1.682,2.605 -0.432,0.71 -0.574,1.477 0,3.856 0.41,1.7 0.944,5.333 -1.419,9.627 0,0 3.005,-6.222 0,-10.366 -2.671,-3.683 -6.755,-1.778 -8.123,-1.149 -1.368,0.629 -3.641,0.917 -4.516,-0.013 0,0 -0.219,1.641 2.465,2.201 2.62,0.547 4.906,-0.004 7.162,2.12 1.806,1.7 2.632,6.392 -0.927,10.858 z M 83.607,79.136 c 0.212,0.299 0.446,0.584 0.702,0.848 0.586,0.604 1.282,1.102 2.042,1.467 0.378,0.182 0.78,0.329 1.175,0.444 0.417,0.119 0.83,0.195 1.255,0.235 0.846,0.082 1.714,0.008 2.546,-0.242 0.416,-0.124 0.822,-0.296 1.207,-0.512 0.386,-0.215 0.749,-0.48 1.075,-0.788 0.658,-0.611 1.151,-1.411 1.414,-2.262 0.065,-0.21 0.12,-0.432 0.159,-0.639 0.042,-0.217 0.069,-0.427 0.088,-0.645 0.037,-0.433 0.025,-0.878 -0.043,-1.319 -0.068,-0.441 -0.194,-0.878 -0.379,-1.289 -0.186,-0.411 -0.433,-0.795 -0.726,-1.134 -0.586,-0.681 -1.36,-1.171 -2.197,-1.426 -0.419,-0.129 -0.856,-0.194 -1.294,-0.196 -0.055,0 -0.11,0.001 -0.164,0.003 l -0.082,0.004 -0.091,0.006 -0.149,0.015 c -0.061,0.006 -0.116,0.014 -0.169,0.022 -0.218,0.033 -0.435,0.086 -0.647,0.159 -0.424,0.145 -0.825,0.377 -1.157,0.683 -0.332,0.305 -0.594,0.68 -0.764,1.088 -0.17,0.408 -0.246,0.851 -0.22,1.29 0.014,0.22 0.054,0.439 0.125,0.65 0.035,0.104 0.081,0.214 0.128,0.305 0.021,0.041 0.054,0.104 0.08,0.146 0.028,0.047 0.057,0.093 0.088,0.137 0.245,0.359 0.585,0.634 0.955,0.818 0.372,0.183 0.781,0.28 1.187,0.265 0.405,-0.014 0.809,-0.146 1.119,-0.394 0.311,-0.248 0.51,-0.599 0.599,-0.959 -0.081,0.167 -0.179,0.325 -0.3,0.459 -0.12,0.135 -0.26,0.247 -0.413,0.33 -0.305,0.17 -0.657,0.22 -0.991,0.178 C 89.43,76.841 89.11,76.715 88.84,76.527 88.569,76.34 88.354,76.09 88.212,75.815 88.195,75.78 88.178,75.746 88.163,75.711 88.145,75.672 88.139,75.65 88.122,75.607 c -0.028,-0.078 -0.045,-0.144 -0.06,-0.218 -0.028,-0.146 -0.036,-0.297 -0.025,-0.448 0.02,-0.302 0.118,-0.6 0.264,-0.862 0.146,-0.263 0.347,-0.488 0.583,-0.66 0.236,-0.171 0.506,-0.289 0.793,-0.352 0.143,-0.032 0.291,-0.05 0.442,-0.058 0.039,-0.002 0.076,-0.003 0.108,-0.003 h 0.129 l 0.105,0.005 c 0.038,0.002 0.076,0.006 0.113,0.01 0.302,0.03 0.6,0.108 0.882,0.222 0.565,0.228 1.056,0.613 1.404,1.085 0.348,0.474 0.549,1.034 0.599,1.622 0.025,0.294 0.012,0.596 -0.029,0.899 -0.02,0.15 -0.052,0.307 -0.085,0.453 -0.036,0.157 -0.076,0.294 -0.126,0.435 -0.194,0.56 -0.51,1.055 -0.929,1.464 -0.211,0.203 -0.447,0.383 -0.702,0.54 -0.256,0.156 -0.533,0.284 -0.822,0.386 -0.58,0.203 -1.214,0.29 -1.845,0.257 -0.314,-0.018 -0.635,-0.068 -0.934,-0.143 -0.319,-0.079 -0.616,-0.188 -0.908,-0.323 -0.925,-0.423 -1.708,-1.132 -2.254,-1.995 z m -4.471,337.257 c 0.299,-0.212 0.584,-0.446 0.848,-0.702 0.604,-0.586 1.102,-1.283 1.467,-2.042 0.182,-0.378 0.329,-0.78 0.444,-1.176 0.119,-0.417 0.195,-0.829 0.235,-1.255 0.082,-0.846 0.008,-1.714 -0.242,-2.546 -0.124,-0.416 -0.296,-0.822 -0.511,-1.207 -0.215,-0.386 -0.48,-0.749 -0.788,-1.075 -0.611,-0.658 -1.411,-1.151 -2.262,-1.414 -0.21,-0.065 -0.432,-0.12 -0.639,-0.159 -0.217,-0.042 -0.427,-0.069 -0.645,-0.087 -0.434,-0.037 -0.878,-0.025 -1.319,0.043 -0.441,0.068 -0.878,0.194 -1.289,0.379 -0.411,0.186 -0.795,0.433 -1.134,0.726 -0.681,0.586 -1.171,1.36 -1.426,2.197 -0.129,0.419 -0.194,0.856 -0.196,1.294 0,0.055 0.001,0.11 0.003,0.164 l 0.004,0.082 0.006,0.091 0.015,0.149 c 0.006,0.06 0.014,0.116 0.022,0.169 0.033,0.218 0.086,0.435 0.159,0.647 0.145,0.424 0.377,0.826 0.683,1.158 0.305,0.332 0.68,0.594 1.088,0.764 0.408,0.17 0.851,0.246 1.29,0.22 0.22,-0.014 0.439,-0.054 0.65,-0.125 0.104,-0.035 0.214,-0.081 0.305,-0.128 0.041,-0.022 0.104,-0.054 0.146,-0.081 0.047,-0.028 0.093,-0.057 0.137,-0.088 0.359,-0.245 0.634,-0.585 0.818,-0.955 0.183,-0.372 0.28,-0.781 0.266,-1.187 -0.015,-0.405 -0.146,-0.809 -0.394,-1.119 -0.248,-0.311 -0.599,-0.51 -0.959,-0.599 0.167,0.081 0.325,0.179 0.459,0.3 0.135,0.12 0.247,0.26 0.33,0.413 0.17,0.305 0.22,0.657 0.178,0.991 -0.042,0.335 -0.168,0.655 -0.356,0.925 -0.187,0.271 -0.437,0.486 -0.712,0.628 -0.035,0.017 -0.069,0.034 -0.104,0.049 -0.039,0.017 -0.061,0.024 -0.104,0.04 -0.078,0.028 -0.144,0.045 -0.218,0.06 -0.146,0.028 -0.297,0.036 -0.448,0.025 -0.302,-0.02 -0.6,-0.118 -0.862,-0.264 -0.263,-0.146 -0.488,-0.347 -0.66,-0.583 -0.171,-0.236 -0.289,-0.506 -0.352,-0.793 -0.032,-0.143 -0.05,-0.291 -0.058,-0.442 -0.002,-0.038 -0.003,-0.076 -0.003,-0.108 v -0.129 l 0.005,-0.105 c 0.002,-0.038 0.006,-0.076 0.009,-0.113 0.03,-0.302 0.108,-0.6 0.222,-0.882 0.227,-0.565 0.613,-1.056 1.085,-1.404 0.474,-0.348 1.034,-0.549 1.622,-0.599 0.294,-0.026 0.596,-0.012 0.899,0.029 0.151,0.02 0.307,0.052 0.453,0.085 0.157,0.036 0.294,0.076 0.435,0.126 0.56,0.194 1.055,0.51 1.464,0.929 0.203,0.211 0.383,0.447 0.54,0.702 0.156,0.255 0.284,0.533 0.386,0.822 0.203,0.58 0.29,1.214 0.257,1.845 -0.018,0.314 -0.068,0.635 -0.143,0.934 -0.079,0.319 -0.188,0.616 -0.323,0.908 -0.423,0.925 -1.132,1.708 -1.995,2.254 z m 337.257,4.471 c -0.212,-0.299 -0.446,-0.584 -0.702,-0.848 -0.586,-0.604 -1.283,-1.102 -2.042,-1.467 -0.378,-0.182 -0.78,-0.329 -1.176,-0.444 -0.417,-0.119 -0.829,-0.195 -1.255,-0.235 -0.846,-0.082 -1.714,-0.008 -2.546,0.242 -0.416,0.124 -0.822,0.296 -1.207,0.512 -0.386,0.215 -0.749,0.48 -1.075,0.788 -0.658,0.611 -1.151,1.411 -1.414,2.262 -0.065,0.21 -0.12,0.432 -0.159,0.639 -0.042,0.217 -0.069,0.427 -0.087,0.645 -0.037,0.434 -0.025,0.878 0.043,1.319 0.068,0.441 0.194,0.878 0.379,1.29 0.186,0.411 0.433,0.795 0.726,1.134 0.586,0.681 1.36,1.171 2.197,1.426 0.419,0.129 0.856,0.194 1.294,0.196 0.055,0 0.11,-10e-4 0.164,-0.003 l 0.082,-0.004 0.091,-0.005 0.149,-0.015 c 0.061,-0.006 0.116,-0.014 0.169,-0.022 0.218,-0.033 0.435,-0.086 0.647,-0.159 0.424,-0.145 0.826,-0.377 1.158,-0.682 0.332,-0.305 0.594,-0.68 0.764,-1.088 0.17,-0.408 0.246,-0.851 0.22,-1.29 -0.014,-0.22 -0.054,-0.439 -0.125,-0.65 -0.035,-0.104 -0.081,-0.214 -0.128,-0.305 -0.021,-0.041 -0.054,-0.104 -0.081,-0.146 -0.028,-0.047 -0.057,-0.093 -0.088,-0.137 -0.245,-0.359 -0.585,-0.634 -0.955,-0.818 -0.372,-0.183 -0.78,-0.28 -1.187,-0.266 -0.405,0.014 -0.809,0.146 -1.119,0.394 -0.311,0.248 -0.51,0.599 -0.599,0.959 0.081,-0.167 0.179,-0.325 0.3,-0.459 0.12,-0.135 0.26,-0.247 0.413,-0.331 0.305,-0.17 0.657,-0.22 0.991,-0.178 0.335,0.042 0.655,0.168 0.925,0.356 0.271,0.187 0.486,0.437 0.628,0.712 0.017,0.034 0.034,0.069 0.049,0.104 0.018,0.039 0.024,0.061 0.041,0.104 0.028,0.078 0.045,0.144 0.06,0.219 0.028,0.146 0.036,0.297 0.025,0.448 -0.02,0.302 -0.118,0.6 -0.264,0.862 -0.146,0.263 -0.347,0.488 -0.583,0.66 -0.236,0.171 -0.506,0.289 -0.793,0.352 -0.143,0.032 -0.291,0.05 -0.442,0.058 -0.039,0.002 -0.076,0.003 -0.108,0.003 h -0.129 l -0.105,-0.005 c -0.038,-0.002 -0.076,-0.005 -0.113,-0.009 -0.302,-0.03 -0.6,-0.108 -0.882,-0.222 -0.565,-0.228 -1.056,-0.613 -1.404,-1.085 -0.348,-0.474 -0.549,-1.034 -0.599,-1.622 -0.025,-0.294 -0.012,-0.596 0.029,-0.899 0.02,-0.15 0.052,-0.307 0.085,-0.453 0.036,-0.157 0.076,-0.294 0.126,-0.435 0.194,-0.56 0.51,-1.055 0.929,-1.464 0.211,-0.203 0.447,-0.383 0.702,-0.54 0.255,-0.156 0.533,-0.284 0.822,-0.386 0.58,-0.203 1.214,-0.29 1.845,-0.257 0.314,0.018 0.635,0.068 0.934,0.143 0.319,0.079 0.616,0.188 0.908,0.323 0.925,0.423 1.708,1.132 2.254,1.995 z m 4.471,-337.257 c -0.299,0.212 -0.584,0.446 -0.848,0.702 -0.604,0.586 -1.102,1.283 -1.467,2.042 -0.182,0.378 -0.329,0.78 -0.444,1.175 -0.119,0.417 -0.195,0.829 -0.235,1.255 -0.082,0.846 -0.008,1.714 0.242,2.546 0.124,0.416 0.296,0.822 0.511,1.207 0.215,0.386 0.48,0.749 0.788,1.075 0.611,0.658 1.411,1.151 2.262,1.414 0.21,0.065 0.432,0.12 0.639,0.159 0.217,0.042 0.427,0.069 0.645,0.088 0.434,0.037 0.878,0.025 1.319,-0.043 0.441,-0.068 0.878,-0.194 1.289,-0.379 0.411,-0.186 0.795,-0.433 1.134,-0.726 0.681,-0.586 1.171,-1.36 1.426,-2.197 0.129,-0.419 0.194,-0.856 0.196,-1.294 0,-0.055 -0.001,-0.11 -0.003,-0.164 l -0.004,-0.082 -0.006,-0.091 -0.015,-0.149 c -0.006,-0.061 -0.014,-0.116 -0.022,-0.169 -0.033,-0.218 -0.086,-0.435 -0.159,-0.647 -0.145,-0.424 -0.377,-0.826 -0.682,-1.158 -0.305,-0.332 -0.68,-0.594 -1.088,-0.764 -0.408,-0.17 -0.851,-0.246 -1.29,-0.22 -0.22,0.014 -0.439,0.054 -0.65,0.125 -0.104,0.035 -0.214,0.081 -0.305,0.128 -0.041,0.021 -0.104,0.054 -0.146,0.08 -0.047,0.028 -0.093,0.057 -0.137,0.088 -0.359,0.245 -0.634,0.585 -0.818,0.955 -0.183,0.372 -0.28,0.78 -0.266,1.187 0.015,0.405 0.146,0.809 0.394,1.119 0.248,0.311 0.599,0.51 0.959,0.599 -0.167,-0.081 -0.325,-0.179 -0.459,-0.3 -0.135,-0.12 -0.247,-0.26 -0.331,-0.413 -0.17,-0.305 -0.22,-0.657 -0.178,-0.991 0.042,-0.335 0.168,-0.655 0.356,-0.925 0.187,-0.271 0.437,-0.486 0.711,-0.628 0.035,-0.017 0.069,-0.034 0.104,-0.049 0.039,-0.018 0.061,-0.024 0.104,-0.041 0.078,-0.028 0.144,-0.045 0.219,-0.06 0.146,-0.028 0.297,-0.036 0.448,-0.025 0.302,0.02 0.6,0.118 0.862,0.264 0.263,0.146 0.488,0.347 0.66,0.583 0.171,0.236 0.289,0.506 0.352,0.793 0.032,0.143 0.05,0.291 0.058,0.442 0.002,0.038 0.003,0.076 0.003,0.108 v 0.129 l -0.005,0.105 c -0.002,0.038 -0.006,0.076 -0.01,0.113 -0.03,0.302 -0.108,0.6 -0.222,0.882 -0.228,0.565 -0.613,1.056 -1.085,1.404 -0.474,0.348 -1.034,0.549 -1.622,0.599 -0.294,0.026 -0.596,0.012 -0.899,-0.029 -0.15,-0.02 -0.307,-0.052 -0.453,-0.085 -0.157,-0.036 -0.293,-0.076 -0.435,-0.126 -0.56,-0.194 -1.055,-0.51 -1.464,-0.929 -0.203,-0.211 -0.383,-0.447 -0.54,-0.702 -0.156,-0.256 -0.284,-0.533 -0.386,-0.822 -0.203,-0.58 -0.29,-1.214 -0.257,-1.845 0.018,-0.314 0.068,-0.635 0.143,-0.934 0.079,-0.319 0.188,-0.616 0.323,-0.908 0.423,-0.925 1.132,-1.708 1.995,-2.254 z m -5.686,-5.685 c -0.546,0.863 -1.329,1.572 -2.254,1.995 -0.292,0.135 -0.589,0.243 -0.908,0.323 -0.299,0.075 -0.62,0.125 -0.934,0.143 -0.631,0.033 -1.265,-0.053 -1.845,-0.257 -0.289,-0.102 -0.567,-0.23 -0.822,-0.386 -0.255,-0.157 -0.492,-0.337 -0.702,-0.54 -0.419,-0.409 -0.735,-0.904 -0.929,-1.464 -0.05,-0.142 -0.09,-0.279 -0.126,-0.435 -0.034,-0.146 -0.065,-0.302 -0.085,-0.453 -0.041,-0.303 -0.055,-0.605 -0.029,-0.899 0.049,-0.588 0.251,-1.148 0.599,-1.622 0.347,-0.472 0.839,-0.858 1.404,-1.085 0.282,-0.113 0.58,-0.191 0.882,-0.222 0.038,-0.004 0.076,-0.007 0.113,-0.01 l 0.105,-0.005 h 0.129 c 0.032,0 0.069,0.001 0.108,0.003 0.15,0.009 0.298,0.026 0.442,0.058 0.287,0.063 0.557,0.181 0.793,0.352 0.236,0.171 0.437,0.397 0.583,0.66 0.146,0.262 0.243,0.559 0.264,0.862 0.011,0.151 0.003,0.302 -0.025,0.448 -0.015,0.075 -0.031,0.14 -0.06,0.218 -0.017,0.043 -0.023,0.065 -0.041,0.104 -0.015,0.035 -0.032,0.07 -0.049,0.104 -0.142,0.275 -0.357,0.524 -0.628,0.712 -0.27,0.188 -0.59,0.314 -0.925,0.356 -0.334,0.043 -0.687,-0.007 -0.991,-0.178 -0.153,-0.084 -0.293,-0.195 -0.413,-0.33 -0.121,-0.135 -0.219,-0.292 -0.3,-0.459 0.089,0.36 0.288,0.711 0.599,0.959 0.31,0.248 0.714,0.38 1.119,0.394 0.407,0.014 0.816,-0.083 1.187,-0.265 0.37,-0.185 0.71,-0.459 0.955,-0.818 0.031,-0.045 0.06,-0.09 0.088,-0.137 0.027,-0.042 0.059,-0.105 0.081,-0.146 0.047,-0.091 0.093,-0.201 0.128,-0.305 0.071,-0.211 0.111,-0.43 0.125,-0.65 0.026,-0.439 -0.05,-0.882 -0.22,-1.29 -0.17,-0.408 -0.431,-0.783 -0.764,-1.088 -0.332,-0.306 -0.733,-0.538 -1.158,-0.683 -0.212,-0.073 -0.429,-0.126 -0.647,-0.159 -0.054,-0.008 -0.109,-0.016 -0.169,-0.022 l -0.149,-0.015 -0.091,-0.006 -0.082,-0.004 c -0.055,-0.002 -0.11,-0.003 -0.164,-0.003 -0.438,0.002 -0.876,0.068 -1.294,0.196 -0.837,0.254 -1.611,0.745 -2.197,1.426 -0.293,0.339 -0.54,0.723 -0.726,1.134 -0.185,0.412 -0.311,0.849 -0.379,1.289 -0.068,0.441 -0.08,0.886 -0.043,1.319 0.019,0.218 0.046,0.429 0.087,0.645 0.039,0.206 0.093,0.428 0.159,0.639 0.263,0.85 0.757,1.65 1.414,2.262 0.326,0.308 0.689,0.574 1.075,0.788 0.386,0.216 0.791,0.388 1.207,0.512 0.832,0.249 1.7,0.324 2.546,0.242 0.425,-0.04 0.838,-0.116 1.255,-0.235 0.396,-0.115 0.797,-0.262 1.176,-0.444 0.759,-0.365 1.456,-0.863 2.042,-1.467 0.256,-0.264 0.49,-0.549 0.702,-0.848 z m -337.257,6.9 c 0.863,0.547 1.572,1.329 1.995,2.254 0.135,0.292 0.243,0.589 0.323,0.908 0.075,0.299 0.125,0.62 0.143,0.934 0.033,0.631 -0.053,1.265 -0.257,1.845 -0.102,0.29 -0.23,0.567 -0.386,0.822 -0.157,0.255 -0.337,0.492 -0.54,0.702 -0.409,0.419 -0.904,0.735 -1.464,0.929 -0.142,0.05 -0.279,0.09 -0.435,0.126 -0.146,0.033 -0.302,0.065 -0.453,0.085 -0.303,0.041 -0.605,0.055 -0.899,0.029 C 75.36,93.407 74.8,93.205 74.326,92.857 73.854,92.51 73.468,92.018 73.241,91.453 73.128,91.171 73.05,90.873 73.019,90.571 73.015,90.533 73.012,90.495 73.01,90.458 l -0.005,-0.105 v -0.129 c 0,-0.032 0.001,-0.069 0.003,-0.108 0.009,-0.15 0.026,-0.298 0.058,-0.442 0.063,-0.287 0.181,-0.557 0.352,-0.793 0.171,-0.236 0.397,-0.437 0.66,-0.583 0.262,-0.146 0.559,-0.243 0.862,-0.264 0.151,-0.011 0.302,-0.003 0.448,0.025 0.075,0.015 0.14,0.031 0.218,0.06 0.043,0.017 0.065,0.023 0.104,0.041 0.035,0.015 0.07,0.032 0.104,0.049 0.274,0.142 0.524,0.357 0.712,0.628 0.188,0.27 0.314,0.59 0.356,0.925 0.043,0.334 -0.007,0.687 -0.178,0.991 -0.084,0.153 -0.195,0.293 -0.33,0.413 -0.135,0.121 -0.292,0.219 -0.459,0.3 0.36,-0.089 0.711,-0.288 0.959,-0.599 0.248,-0.31 0.38,-0.714 0.394,-1.119 0.014,-0.407 -0.083,-0.816 -0.266,-1.187 -0.185,-0.37 -0.459,-0.71 -0.818,-0.955 -0.045,-0.031 -0.09,-0.06 -0.137,-0.088 -0.042,-0.027 -0.105,-0.059 -0.146,-0.08 -0.091,-0.047 -0.201,-0.093 -0.305,-0.128 -0.211,-0.071 -0.43,-0.111 -0.65,-0.125 -0.439,-0.026 -0.882,0.05 -1.29,0.22 -0.408,0.17 -0.783,0.431 -1.088,0.764 -0.306,0.332 -0.538,0.733 -0.683,1.158 -0.073,0.212 -0.126,0.429 -0.159,0.647 -0.008,0.054 -0.016,0.109 -0.022,0.169 l -0.015,0.149 -0.006,0.091 -0.004,0.082 c -0.002,0.055 -0.003,0.11 -0.003,0.164 0.002,0.438 0.068,0.876 0.196,1.294 0.254,0.837 0.745,1.611 1.426,2.197 0.339,0.293 0.723,0.54 1.134,0.726 0.412,0.185 0.849,0.311 1.289,0.379 0.441,0.068 0.886,0.08 1.319,0.043 0.218,-0.019 0.428,-0.046 0.645,-0.088 0.207,-0.039 0.429,-0.093 0.639,-0.159 0.85,-0.263 1.65,-0.757 2.262,-1.414 0.308,-0.326 0.573,-0.689 0.788,-1.075 0.216,-0.386 0.388,-0.791 0.511,-1.207 0.249,-0.832 0.324,-1.7 0.242,-2.546 -0.04,-0.425 -0.116,-0.838 -0.235,-1.255 -0.115,-0.396 -0.262,-0.798 -0.444,-1.175 -0.365,-0.759 -0.863,-1.456 -1.467,-2.042 -0.264,-0.256 -0.549,-0.49 -0.848,-0.702 z m 6.901,337.256 c 0.547,-0.863 1.329,-1.572 2.254,-1.995 0.292,-0.135 0.589,-0.243 0.908,-0.323 0.299,-0.075 0.62,-0.125 0.934,-0.143 0.631,-0.033 1.265,0.053 1.845,0.257 0.289,0.102 0.567,0.23 0.822,0.386 0.255,0.157 0.492,0.337 0.702,0.54 0.419,0.409 0.735,0.904 0.929,1.464 0.05,0.142 0.09,0.279 0.126,0.435 0.034,0.146 0.065,0.302 0.085,0.453 0.041,0.303 0.055,0.605 0.029,0.899 -0.049,0.588 -0.251,1.148 -0.599,1.622 -0.347,0.472 -0.839,0.858 -1.404,1.085 -0.282,0.113 -0.58,0.191 -0.882,0.222 -0.038,0.004 -0.076,0.007 -0.113,0.009 l -0.105,0.005 h -0.129 c -0.032,0 -0.069,-0.001 -0.108,-0.003 -0.15,-0.009 -0.298,-0.026 -0.442,-0.058 -0.287,-0.063 -0.557,-0.181 -0.793,-0.352 -0.236,-0.171 -0.437,-0.397 -0.583,-0.66 -0.146,-0.262 -0.243,-0.559 -0.264,-0.862 -0.011,-0.151 -0.003,-0.302 0.025,-0.448 0.015,-0.075 0.031,-0.14 0.06,-0.219 0.017,-0.043 0.023,-0.065 0.041,-0.104 0.015,-0.035 0.032,-0.07 0.049,-0.104 0.142,-0.275 0.357,-0.524 0.628,-0.712 0.27,-0.188 0.59,-0.314 0.925,-0.356 0.334,-0.043 0.687,0.007 0.991,0.178 0.153,0.084 0.293,0.195 0.413,0.331 0.121,0.135 0.219,0.292 0.3,0.459 -0.089,-0.36 -0.288,-0.711 -0.599,-0.959 -0.31,-0.248 -0.714,-0.38 -1.119,-0.394 -0.407,-0.014 -0.816,0.083 -1.187,0.266 -0.37,0.185 -0.71,0.459 -0.955,0.818 -0.031,0.045 -0.06,0.09 -0.088,0.137 -0.027,0.042 -0.059,0.105 -0.08,0.146 -0.047,0.091 -0.093,0.201 -0.128,0.305 -0.071,0.211 -0.111,0.43 -0.125,0.65 -0.026,0.439 0.05,0.882 0.22,1.29 0.17,0.408 0.431,0.783 0.764,1.088 0.332,0.306 0.733,0.538 1.157,0.682 0.212,0.073 0.429,0.126 0.647,0.159 0.054,0.008 0.109,0.016 0.169,0.022 l 0.149,0.015 0.091,0.005 0.082,0.004 c 0.055,0.002 0.11,0.003 0.164,0.003 0.438,-0.002 0.876,-0.068 1.294,-0.196 0.837,-0.254 1.611,-0.745 2.197,-1.426 0.293,-0.339 0.54,-0.723 0.726,-1.134 0.185,-0.412 0.311,-0.849 0.379,-1.29 0.068,-0.441 0.08,-0.886 0.043,-1.319 -0.019,-0.218 -0.046,-0.428 -0.088,-0.645 -0.039,-0.207 -0.093,-0.428 -0.159,-0.639 -0.263,-0.85 -0.757,-1.65 -1.414,-2.262 -0.326,-0.308 -0.689,-0.574 -1.075,-0.788 -0.386,-0.216 -0.791,-0.388 -1.207,-0.512 -0.832,-0.25 -1.7,-0.324 -2.546,-0.242 -0.425,0.04 -0.838,0.116 -1.255,0.235 -0.395,0.115 -0.797,0.262 -1.175,0.444 -0.759,0.365 -1.456,0.863 -2.042,1.467 -0.256,0.264 -0.49,0.548 -0.702,0.848 z m 337.256,-6.9 c -0.863,-0.547 -1.572,-1.329 -1.995,-2.254 -0.135,-0.292 -0.243,-0.589 -0.323,-0.908 -0.075,-0.299 -0.125,-0.62 -0.143,-0.934 -0.033,-0.631 0.053,-1.265 0.257,-1.845 0.102,-0.29 0.23,-0.567 0.386,-0.822 0.157,-0.255 0.337,-0.492 0.54,-0.702 0.409,-0.419 0.904,-0.735 1.464,-0.929 0.142,-0.05 0.279,-0.09 0.435,-0.126 0.146,-0.034 0.302,-0.065 0.453,-0.085 0.303,-0.041 0.605,-0.055 0.899,-0.029 0.588,0.049 1.148,0.251 1.622,0.599 0.472,0.347 0.858,0.839 1.085,1.404 0.113,0.282 0.191,0.58 0.222,0.882 0.004,0.038 0.007,0.076 0.01,0.113 l 0.005,0.105 v 0.129 c 0,0.032 -10e-4,0.069 -0.003,0.108 -0.009,0.15 -0.026,0.298 -0.058,0.442 -0.063,0.287 -0.181,0.557 -0.352,0.793 -0.171,0.236 -0.397,0.437 -0.66,0.583 -0.262,0.146 -0.559,0.243 -0.862,0.264 -0.151,0.011 -0.302,0.003 -0.448,-0.025 -0.075,-0.015 -0.14,-0.031 -0.219,-0.06 -0.043,-0.017 -0.065,-0.023 -0.104,-0.04 -0.035,-0.015 -0.07,-0.032 -0.104,-0.049 -0.275,-0.142 -0.524,-0.357 -0.711,-0.628 -0.188,-0.27 -0.314,-0.59 -0.356,-0.925 -0.043,-0.334 0.007,-0.687 0.178,-0.991 0.084,-0.153 0.196,-0.293 0.331,-0.413 0.135,-0.121 0.292,-0.219 0.459,-0.3 -0.36,0.089 -0.711,0.288 -0.959,0.599 -0.248,0.31 -0.38,0.714 -0.394,1.119 -0.014,0.407 0.083,0.816 0.266,1.187 0.185,0.37 0.459,0.71 0.818,0.955 0.045,0.031 0.09,0.06 0.137,0.088 0.042,0.027 0.105,0.059 0.146,0.081 0.091,0.047 0.201,0.093 0.305,0.128 0.211,0.071 0.43,0.111 0.65,0.125 0.439,0.026 0.882,-0.05 1.29,-0.22 0.408,-0.17 0.783,-0.431 1.088,-0.764 0.305,-0.332 0.538,-0.733 0.682,-1.158 0.073,-0.212 0.126,-0.429 0.159,-0.647 0.008,-0.054 0.016,-0.109 0.022,-0.169 l 0.015,-0.149 0.006,-0.091 0.004,-0.082 c 0.002,-0.055 0.003,-0.11 0.003,-0.164 -0.002,-0.438 -0.068,-0.876 -0.196,-1.294 -0.254,-0.837 -0.745,-1.611 -1.426,-2.197 -0.339,-0.293 -0.723,-0.54 -1.134,-0.726 -0.412,-0.185 -0.849,-0.311 -1.289,-0.379 -0.441,-0.068 -0.886,-0.08 -1.319,-0.043 -0.218,0.019 -0.428,0.046 -0.645,0.087 -0.206,0.039 -0.428,0.093 -0.639,0.159 -0.85,0.263 -1.65,0.757 -2.262,1.414 -0.308,0.326 -0.573,0.689 -0.788,1.075 -0.216,0.386 -0.388,0.791 -0.511,1.207 -0.25,0.832 -0.324,1.7 -0.242,2.546 0.04,0.425 0.116,0.838 0.235,1.255 0.115,0.396 0.262,0.798 0.444,1.176 0.365,0.759 0.863,1.456 1.467,2.042 0.264,0.256 0.548,0.49 0.848,0.702 z M 400.922,69.404 h 8.894 0.135 l 0.121,0.002 c 0.083,0.002 0.166,0.006 0.249,0.011 0.165,0.01 0.331,0.026 0.495,0.047 0.329,0.043 0.655,0.109 0.974,0.197 0.637,0.176 1.248,0.442 1.795,0.794 0.548,0.35 1.031,0.787 1.416,1.294 0.385,0.506 0.671,1.082 0.843,1.697 0.173,0.617 0.237,1.268 0.187,1.909 -0.001,0.018 -0.004,0.036 -0.005,0.054 l 1.446,1.446 c 0.123,-0.448 0.205,-0.907 0.241,-1.37 0.064,-0.837 -0.018,-1.684 -0.246,-2.495 -0.227,-0.812 -0.611,-1.588 -1.124,-2.261 -0.512,-0.674 -1.147,-1.245 -1.848,-1.693 -1.402,-0.897 -3.056,-1.328 -4.679,-1.317 L 400.922,67.72 250,67.704 99.078,67.72 90.184,67.719 c -1.623,-0.011 -3.277,0.42 -4.679,1.317 -0.7,0.448 -1.336,1.018 -1.848,1.693 -0.514,0.673 -0.897,1.449 -1.124,2.261 -0.228,0.81 -0.31,1.658 -0.246,2.495 0.036,0.464 0.118,0.923 0.241,1.37 l 1.446,-1.446 c -0.002,-0.018 -0.004,-0.036 -0.005,-0.054 -0.05,-0.641 0.014,-1.292 0.187,-1.909 0.172,-0.616 0.458,-1.191 0.843,-1.697 0.385,-0.507 0.868,-0.944 1.416,-1.294 0.547,-0.352 1.158,-0.617 1.795,-0.794 0.319,-0.088 0.645,-0.154 0.974,-0.197 0.164,-0.021 0.33,-0.037 0.495,-0.047 0.083,-0.005 0.166,-0.008 0.249,-0.011 l 0.121,-0.002 h 0.135 8.894 L 250,69.421 Z m 29.674,331.518 v 8.894 0.135 l -0.002,0.121 c -0.002,0.083 -0.006,0.166 -0.011,0.249 -0.01,0.165 -0.026,0.331 -0.047,0.495 -0.043,0.329 -0.109,0.655 -0.197,0.974 -0.176,0.638 -0.442,1.248 -0.793,1.795 -0.35,0.548 -0.787,1.031 -1.294,1.416 -0.506,0.385 -1.082,0.671 -1.697,0.843 -0.617,0.173 -1.268,0.237 -1.909,0.187 -0.018,-0.001 -0.036,-0.004 -0.054,-0.005 l -1.446,1.446 c 0.448,0.123 0.907,0.205 1.37,0.241 0.837,0.064 1.684,-0.018 2.495,-0.246 0.812,-0.227 1.588,-0.611 2.261,-1.125 0.674,-0.512 1.245,-1.147 1.693,-1.848 0.897,-1.402 1.328,-3.056 1.317,-4.679 L 432.281,400.921 432.296,250 432.28,99.078 l 0.001,-8.894 c 0.011,-1.622 -0.42,-3.276 -1.317,-4.679 -0.448,-0.7 -1.018,-1.336 -1.693,-1.848 -0.673,-0.514 -1.449,-0.897 -2.261,-1.125 -0.81,-0.228 -1.658,-0.31 -2.495,-0.246 -0.464,0.036 -0.923,0.118 -1.37,0.241 l 1.446,1.446 c 0.018,-0.002 0.036,-0.004 0.054,-0.005 0.641,-0.05 1.292,0.014 1.909,0.187 0.616,0.172 1.191,0.458 1.697,0.843 0.507,0.385 0.944,0.868 1.294,1.416 0.352,0.547 0.617,1.158 0.793,1.795 0.088,0.319 0.154,0.645 0.197,0.974 0.021,0.164 0.037,0.33 0.047,0.495 0.005,0.083 0.008,0.166 0.011,0.249 l 0.002,0.121 v 0.135 8.894 L 430.579,250 Z M 99.078,430.596 h -8.894 -0.135 l -0.121,-0.002 c -0.083,-0.002 -0.166,-0.006 -0.249,-0.011 -0.165,-0.01 -0.331,-0.026 -0.495,-0.047 -0.329,-0.043 -0.655,-0.109 -0.974,-0.197 -0.637,-0.176 -1.248,-0.442 -1.795,-0.794 -0.548,-0.35 -1.031,-0.787 -1.416,-1.294 -0.385,-0.506 -0.671,-1.082 -0.843,-1.697 -0.173,-0.617 -0.237,-1.268 -0.187,-1.909 0.001,-0.018 0.004,-0.036 0.005,-0.054 l -1.446,-1.446 c -0.123,0.448 -0.205,0.907 -0.241,1.371 -0.064,0.837 0.018,1.684 0.246,2.495 0.227,0.812 0.611,1.588 1.124,2.261 0.512,0.674 1.147,1.245 1.848,1.693 1.402,0.897 3.056,1.328 4.679,1.317 h 8.894 L 250,432.296 400.922,432.28 h 8.894 c 1.622,0.011 3.276,-0.42 4.679,-1.317 0.7,-0.448 1.336,-1.018 1.848,-1.693 0.514,-0.673 0.897,-1.449 1.124,-2.261 0.228,-0.81 0.31,-1.658 0.246,-2.495 -0.036,-0.464 -0.118,-0.923 -0.241,-1.371 l -1.446,1.446 c 0.002,0.018 0.004,0.036 0.005,0.054 0.05,0.641 -0.014,1.292 -0.187,1.909 -0.172,0.616 -0.458,1.191 -0.843,1.697 -0.385,0.507 -0.868,0.944 -1.416,1.294 -0.547,0.352 -1.158,0.617 -1.795,0.794 -0.319,0.088 -0.645,0.154 -0.974,0.197 -0.164,0.022 -0.33,0.037 -0.495,0.047 -0.083,0.005 -0.165,0.009 -0.249,0.011 l -0.121,0.002 h -0.135 -8.894 L 250,430.579 Z M 69.404,99.078 v -8.894 -0.135 l 0.002,-0.121 c 0.002,-0.083 0.006,-0.166 0.011,-0.249 0.01,-0.165 0.026,-0.331 0.047,-0.495 0.043,-0.329 0.109,-0.655 0.197,-0.974 0.176,-0.638 0.442,-1.248 0.794,-1.795 0.35,-0.548 0.787,-1.031 1.294,-1.416 0.506,-0.385 1.082,-0.671 1.697,-0.843 0.617,-0.173 1.268,-0.237 1.909,-0.187 0.018,0.001 0.036,0.004 0.054,0.005 l 1.446,-1.446 c -0.448,-0.123 -0.907,-0.205 -1.37,-0.241 -0.837,-0.064 -1.684,0.018 -2.495,0.246 -0.812,0.227 -1.588,0.611 -2.261,1.125 -0.674,0.512 -1.245,1.147 -1.693,1.848 -0.897,1.402 -1.328,3.056 -1.317,4.679 v 8.894 L 67.704,250 67.72,400.922 v 8.894 c -0.011,1.622 0.42,3.277 1.317,4.679 0.448,0.7 1.018,1.335 1.693,1.848 0.673,0.514 1.449,0.897 2.261,1.125 0.81,0.228 1.658,0.31 2.495,0.246 0.464,-0.036 0.923,-0.118 1.37,-0.241 l -1.446,-1.446 c -0.018,0.002 -0.036,0.004 -0.054,0.005 -0.641,0.05 -1.292,-0.014 -1.909,-0.187 -0.616,-0.172 -1.191,-0.458 -1.697,-0.843 -0.507,-0.385 -0.944,-0.868 -1.294,-1.416 -0.352,-0.547 -0.617,-1.158 -0.794,-1.795 -0.088,-0.319 -0.154,-0.645 -0.197,-0.974 -0.021,-0.164 -0.037,-0.33 -0.047,-0.495 -0.005,-0.083 -0.009,-0.165 -0.011,-0.249 l -0.002,-0.121 v -0.135 -8.894 L 69.421,250 Z m 17.321,-23.524 -1.215,-1.215 -11.17,11.17 1.215,1.215 z m 337.721,11.171 1.216,-1.215 -11.17,-11.17 -1.215,1.215 z m -11.171,337.721 1.215,1.215 11.17,-11.17 -1.216,-1.215 z m -337.721,-11.171 -1.215,1.215 11.17,11.17 1.215,-1.215 z M 63.526,98.879 c 0,1.371 0.004,2.598 0.008,3.696 0.03,8.863 -0.068,8.868 -1.698,8.949 -1.015,0.051 -1.232,-0.545 -1.271,-0.904 -0.061,-0.56 0.25,-1.251 0.757,-1.335 l -0.163,-0.978 c -1.027,0.171 -1.594,1.21 -1.593,2.168 0,0.085 0.004,0.169 0.013,0.252 0.094,0.873 0.755,1.866 2.306,1.788 1.292,-0.065 2.054,-0.389 2.38,-1.916 0.282,-1.32 0.274,-3.702 0.26,-8.027 -0.004,-1.098 -0.008,-2.324 -0.008,-3.693 V 64.518 h 34.361 c 1.369,0 2.595,0.004 3.693,0.008 4.325,0.014 6.707,0.022 8.027,-0.26 1.527,-0.326 1.851,-1.088 1.916,-2.38 0.078,-1.551 -0.915,-2.212 -1.788,-2.306 -0.083,-0.009 -0.167,-0.013 -0.251,-0.013 -0.958,0 -1.997,0.567 -2.168,1.593 l 0.978,0.163 c 0.085,-0.507 0.775,-0.818 1.335,-0.757 0.359,0.039 0.955,0.256 0.904,1.271 -0.081,1.629 -0.086,1.728 -8.949,1.698 -1.099,-0.004 -2.326,-0.008 -3.696,-0.008 H 63.526 Z M 401.121,63.526 c -1.371,0 -2.598,0.004 -3.696,0.008 -8.863,0.03 -8.868,-0.068 -8.949,-1.698 -0.051,-1.015 0.545,-1.232 0.904,-1.271 0.56,-0.061 1.251,0.25 1.335,0.757 l 0.978,-0.163 c -0.171,-1.027 -1.21,-1.594 -2.168,-1.593 -0.085,0 -0.169,0.004 -0.251,0.013 -0.873,0.094 -1.866,0.755 -1.788,2.306 0.065,1.292 0.389,2.054 1.916,2.38 1.32,0.282 3.702,0.274 8.027,0.26 1.098,-0.004 2.324,-0.008 3.693,-0.008 h 34.361 v 34.361 c 0,1.369 -0.004,2.595 -0.008,3.693 -0.014,4.325 -0.022,6.707 0.26,8.027 0.326,1.527 1.088,1.851 2.38,1.916 1.551,0.078 2.212,-0.915 2.306,-1.788 0.009,-0.083 0.013,-0.167 0.013,-0.252 0,-0.958 -0.567,-1.997 -1.593,-2.168 l -0.163,0.978 c 0.507,0.085 0.818,0.775 0.757,1.335 -0.039,0.359 -0.256,0.955 -1.271,0.904 -1.629,-0.081 -1.728,-0.086 -1.698,-8.949 0.004,-1.099 0.008,-2.326 0.008,-3.696 V 63.526 Z m 35.353,337.595 c 0,-1.371 -0.004,-2.598 -0.008,-3.696 -0.03,-8.863 0.068,-8.868 1.698,-8.949 1.015,-0.051 1.232,0.545 1.271,0.904 0.061,0.56 -0.25,1.25 -0.757,1.335 l 0.163,0.978 c 1.027,-0.171 1.594,-1.21 1.593,-2.168 0,-0.085 -0.004,-0.169 -0.013,-0.251 -0.094,-0.873 -0.755,-1.866 -2.306,-1.788 -1.292,0.065 -2.054,0.389 -2.38,1.916 -0.282,1.32 -0.274,3.702 -0.26,8.027 0.004,1.098 0.008,2.324 0.008,3.693 v 34.361 h -34.361 c -1.369,0 -2.595,-0.004 -3.693,-0.008 -4.325,-0.014 -6.707,-0.022 -8.027,0.26 -1.527,0.326 -1.851,1.088 -1.916,2.38 -0.078,1.551 0.915,2.212 1.788,2.306 0.083,0.009 0.167,0.013 0.251,0.013 0.958,0 1.997,-0.567 2.168,-1.593 l -0.978,-0.163 c -0.085,0.507 -0.775,0.818 -1.335,0.757 -0.359,-0.039 -0.955,-0.256 -0.904,-1.271 0.081,-1.629 0.086,-1.728 8.949,-1.698 1.099,0.004 2.326,0.008 3.696,0.008 h 35.353 z M 98.879,436.474 c 1.371,0 2.598,-0.004 3.696,-0.008 8.863,-0.03 8.868,0.068 8.949,1.698 0.051,1.015 -0.545,1.232 -0.904,1.271 -0.56,0.061 -1.25,-0.25 -1.335,-0.757 l -0.978,0.163 c 0.171,1.027 1.21,1.594 2.168,1.593 0.085,0 0.169,-0.004 0.251,-0.013 0.873,-0.094 1.866,-0.755 1.788,-2.306 -0.065,-1.292 -0.389,-2.054 -1.916,-2.38 -1.32,-0.282 -3.702,-0.274 -8.027,-0.26 -1.098,0.004 -2.324,0.008 -3.693,0.008 h -34.36 v -34.361 c 0,-1.37 0.004,-2.596 0.008,-3.693 0.014,-4.325 0.022,-6.707 -0.26,-8.027 -0.326,-1.527 -1.088,-1.851 -2.38,-1.916 -1.551,-0.078 -2.212,0.915 -2.306,1.788 -0.009,0.083 -0.013,0.167 -0.013,0.251 0,0.958 0.567,1.997 1.593,2.168 l 0.163,-0.978 c -0.507,-0.085 -0.818,-0.775 -0.757,-1.335 0.039,-0.359 0.256,-0.955 1.271,-0.904 1.629,0.081 1.728,0.086 1.698,8.949 -0.004,1.099 -0.008,2.326 -0.008,3.696 v 35.353 H 98.879 Z M 46.696,65.21 V 434.79 H 65.21 v 18.514 H 434.79 V 434.79 h 18.514 V 65.21 H 434.79 V 46.696 H 65.21 V 65.21 Z M 435.782,45.704 v 18.514 h 18.514 v 371.563 h -18.514 v 18.514 H 64.218 V 435.781 H 45.704 V 64.218 H 64.218 V 45.704 Z M 47.687,48.379 v 6.739 h 6.738 v -0.694 h 0.694 V 47.686 H 48.38 v 0.692 h -0.693 z m 403.934,-0.692 h -6.739 v 6.738 h 0.694 v 0.694 h 6.738 V 48.38 h -0.692 v -0.693 z m 0.692,403.934 v -6.739 h -6.738 v 0.694 h -0.694 v 6.738 h 6.739 v -0.692 h 0.693 z m -403.934,0.692 h 6.739 v -6.738 h -0.694 v -0.694 h -6.738 v 6.739 h 0.692 v 0.693 z M 443.229,54.425 v -6.738 -1.818 h 1.652 8.554 l 0.003,0.002 v 0.69 h 0.69 l 0.002,0.003 v 8.554 1.653 h -1.818 -6.738 v 386.458 h 6.738 1.818 v 1.653 8.554 l -0.002,0.003 h -0.69 v 0.69 l -0.003,0.002 h -8.554 -1.652 v -1.818 -6.738 H 56.771 v 6.738 1.818 h -1.653 -8.554 l -0.003,-0.002 v -0.69 h -0.69 l -0.002,-0.003 v -8.554 -1.653 h 1.818 6.738 V 56.771 h -6.738 -1.818 v -1.653 -8.554 l 0.002,-0.003 h 0.69 v -0.69 l 0.003,-0.002 h 8.554 1.653 v 1.818 6.738 z M 56.078,56.771 v 386.458 h 0.693 v 0.693 h 386.458 v -0.693 h 0.693 V 56.771 h -0.693 V 56.078 H 56.771 v 0.693 z m 58.596,57.903 c 0.645,-0.486 1.062,-1.259 1.062,-2.129 0,-1.472 -1.194,-2.665 -2.666,-2.665 -0.87,0 -1.643,0.417 -2.129,1.062 -0.645,0.486 -1.062,1.259 -1.062,2.129 0,1.472 1.193,2.666 2.665,2.666 0.871,-10e-4 1.643,-0.418 2.13,-1.063 z m 270.652,0 c 0.486,0.645 1.259,1.062 2.129,1.062 1.472,0 2.665,-1.194 2.665,-2.666 0,-0.87 -0.417,-1.643 -1.062,-2.129 -0.486,-0.645 -1.259,-1.062 -2.129,-1.062 -1.472,0 -2.666,1.194 -2.666,2.665 0.001,0.871 0.418,1.643 1.063,2.13 z m 0,270.652 c -0.645,0.487 -1.062,1.259 -1.062,2.129 0,1.472 1.194,2.665 2.666,2.665 0.87,0 1.643,-0.417 2.129,-1.062 0.645,-0.487 1.062,-1.259 1.062,-2.129 0,-1.472 -1.193,-2.666 -2.665,-2.666 -0.871,0.001 -1.643,0.418 -2.13,1.063 z m -270.652,0 c -0.486,-0.645 -1.259,-1.062 -2.129,-1.062 -1.472,0 -2.665,1.193 -2.665,2.666 0,0.87 0.417,1.643 1.062,2.129 0.486,0.645 1.259,1.062 2.129,1.062 1.472,0 2.666,-1.194 2.666,-2.665 -10e-4,-0.871 -0.418,-1.643 -1.063,-2.13 z m -5.062,-275.714 c 0.535,-0.369 0.886,-0.986 0.886,-1.685 0,-1.13 -0.916,-2.045 -2.045,-2.045 -0.699,0 -1.316,0.351 -1.685,0.886 -0.535,0.369 -0.886,0.986 -0.886,1.685 0,1.13 0.916,2.045 2.045,2.045 0.699,0 1.316,-0.351 1.685,-0.886 z m 280.776,0 c 0.369,0.535 0.986,0.886 1.685,0.886 1.13,0 2.045,-0.916 2.045,-2.045 0,-0.699 -0.351,-1.316 -0.886,-1.685 -0.369,-0.535 -0.986,-0.886 -1.685,-0.886 -1.13,0 -2.045,0.916 -2.045,2.045 0,0.699 0.351,1.316 0.886,1.685 z m 0,280.776 c -0.535,0.369 -0.886,0.986 -0.886,1.685 0,1.13 0.916,2.045 2.045,2.045 0.699,0 1.316,-0.351 1.685,-0.886 0.535,-0.369 0.886,-0.986 0.886,-1.685 0,-1.129 -0.916,-2.045 -2.045,-2.045 -0.699,0 -1.316,0.351 -1.685,0.886 z m -280.776,0 c -0.369,-0.535 -0.986,-0.886 -1.685,-0.886 -1.129,0 -2.045,0.916 -2.045,2.045 0,0.699 0.351,1.316 0.886,1.685 0.369,0.535 0.986,0.886 1.685,0.886 1.13,0 2.045,-0.916 2.045,-2.045 0,-0.699 -0.351,-1.316 -0.886,-1.685 z m -4.106,-284.882 c 0.427,-0.246 0.715,-0.707 0.715,-1.236 0,-0.787 -0.638,-1.426 -1.425,-1.426 -0.529,0 -0.99,0.288 -1.236,0.715 -0.427,0.246 -0.715,0.708 -0.715,1.236 0,0.787 0.638,1.425 1.426,1.425 0.527,0.001 0.989,-0.287 1.235,-0.714 z m 288.988,0 c 0.246,0.427 0.707,0.715 1.236,0.715 0.787,0 1.426,-0.638 1.426,-1.425 0,-0.529 -0.288,-0.99 -0.715,-1.236 -0.246,-0.427 -0.708,-0.715 -1.236,-0.715 -0.787,0 -1.425,0.638 -1.425,1.426 -10e-4,0.527 0.287,0.989 0.714,1.235 z m 0,288.988 c -0.427,0.246 -0.715,0.708 -0.715,1.236 0,0.787 0.638,1.426 1.425,1.426 0.529,0 0.99,-0.288 1.236,-0.715 0.427,-0.246 0.715,-0.708 0.715,-1.236 0,-0.787 -0.638,-1.425 -1.426,-1.425 -0.527,-10e-4 -0.989,0.287 -1.235,0.714 z m -288.988,0 c -0.246,-0.427 -0.707,-0.715 -1.236,-0.715 -0.787,0 -1.426,0.638 -1.426,1.425 0,0.529 0.288,0.99 0.715,1.236 0.246,0.427 0.708,0.715 1.236,0.715 0.787,0 1.425,-0.638 1.425,-1.426 0.001,-0.527 -0.287,-0.989 -0.714,-1.235 z"
   id="path16" />
</g>
</svg>
