<?xml version="1.0" encoding="UTF-8" standalone="no"?>
<!-- Created with Inkscape (http://www.inkscape.org/) -->

<svg
   width="300"
   height="300"
   viewBox="0 0 300 300"
   version="1.1"
   id="svg1"
   xml:space="preserve"
   xmlns="http://www.w3.org/2000/svg"
   xmlns:svg="http://www.w3.org/2000/svg"><defs
     id="defs1" /><g
     id="layer1"><rect
       style="fill:#ffeeaa;fill-opacity:1;stroke:none;stroke-width:3.52903;stroke-linecap:round;stroke-linejoin:round;stroke-dasharray:none"
       id="rect12"
       width="27.161453"
       height="53.121151"
       x="136.46999"
       y="89.296822"
       ry="0" /><rect
       style="fill:#ffeeaa;fill-opacity:1;stroke:none;stroke-width:3.97765;stroke-linecap:round;stroke-linejoin:round;stroke-dasharray:none"
       id="rect12-5"
       width="54.761013"
       height="33.472725"
       x="122.85351"
       y="100.21196"
       ry="0" /><text
       xml:space="preserve"
       style="font-size:64px;line-height:207.623px;font-family:'Great Vibes';-inkscape-font-specification:'Great Vibes';text-align:center;letter-spacing:0.773426px;word-spacing:0px;baseline-shift:baseline;text-anchor:middle;fill:#ce892c;stroke-width:10.3123;stroke-linecap:round;stroke-linejoin:round"
       x="144.21315"
       y="252.79323"
       id="text1"
       transform="scale(1.0258013,0.97484767)"><tspan
         id="tspan1"
         x="144.59987"
         y="252.79323"
         style="font-size:64px;line-height:207.623px;letter-spacing:0.773426px;baseline-shift:baseline;stroke-width:10.3123">Fotobox</tspan></text><g
       id="g12"
       transform="translate(0,31.74641)"><path
         style="fill:#ce892c;stroke:none;stroke-width:3.47249;stroke-linecap:round;stroke-linejoin:round"
         d="M 75.179472,84.989265 V 32.467809 h 74.832218 74.83223 V 84.989265 137.51072 H 150.01169 75.179472 Z m 61.036258,31.773305 0.094,-7.03179 h 13.70196 13.70197 l 0.094,7.03179 0.094,7.0318 23.52614,0.0892 23.52614,0.0892 V 85.078504 46.184156 H 150.01169 89.069444 v 38.894348 38.894346 l 23.526136,-0.0892 23.52614,-0.0892 z"
         id="path4" /><path
         style="fill:#ce892c;stroke-width:3.61921;stroke-linecap:round;stroke-linejoin:round"
         d="m 122.75263,104.56116 v -5.247862 h 6.87651 6.87651 v 5.247862 5.24787 h -6.87651 -6.87651 z"
         id="path5" /><path
         style="fill:#ce892c;stroke-width:3.56219;stroke-linecap:round;stroke-linejoin:round"
         d="M 108.59817,85.064021 V 70.815245 h 7.1244 7.12438 v 14.248776 14.248776 h -7.12438 -7.1244 z"
         id="path6" /><path
         style="fill:#ce892c;stroke-width:3.61944;stroke-linecap:round;stroke-linejoin:round"
         d="m 122.75263,65.409685 v -5.429169 h 6.87694 6.87695 v 5.429169 5.429171 h -6.87695 -6.87694 z"
         id="path7" /><path
         style="fill:#ce892c;stroke:none;stroke-width:3.83332;stroke-linecap:round;stroke-linejoin:round;stroke-dasharray:none"
         d="m 136.41319,51.786091 v -8.29956 h 13.64103 13.64104 v 8.29956 8.299559 h -13.64104 -13.64103 z"
         id="path8" /><path
         style="fill:#ce892c;stroke-width:3.56286;stroke-linecap:round;stroke-linejoin:round"
         d="M 177.54047,85.09731 V 70.845835 h 6.94759 6.9476 V 85.09731 99.348785 h -6.9476 -6.94759 z"
         id="path9" /><path
         style="fill:#ce892c;stroke-width:3.59051;stroke-linecap:round;stroke-linejoin:round"
         d="m 163.61503,65.453093 v -5.385761 h 7.00149 7.00149 v 5.385761 5.385763 h -7.00149 -7.00149 z"
         id="path10" /><path
         style="fill:#ce892c;stroke-width:3.58943;stroke-linecap:round;stroke-linejoin:round"
         d="m 163.61922,104.51797 v -5.204672 h 6.9994 6.99939 v 5.204672 5.20469 h -6.99939 -6.9994 z"
         id="path11" /><path
         style="fill:#ce892c;fill-opacity:1;stroke:none;stroke-width:3.47249;stroke-linecap:round;stroke-linejoin:round"
         d="m 90.458441,26.417736 v -6.076863 h 9.722979 9.72298 v 6.076863 6.076862 h -9.72298 -9.722979 z"
         id="path12" /></g></g></svg>
