<?xml version="1.0" encoding="UTF-8" standalone="no"?>
<!-- Created with Inkscape (http://www.inkscape.org/) -->

<svg
   width="256"
   height="256"
   viewBox="0 0 256 256"
   id="Layer_1"
   data-name="Layer 1"
   version="1.1"
   sodipodi:docname="Pointer.svg"
   inkscape:version="1.3.2 (091e20ef0f, 2023-11-25, custom)"
   xmlns:inkscape="http://www.inkscape.org/namespaces/inkscape"
   xmlns:sodipodi="http://sodipodi.sourceforge.net/DTD/sodipodi-0.dtd"
   xmlns="http://www.w3.org/2000/svg"
   xmlns:svg="http://www.w3.org/2000/svg">
  <sodipodi:namedview
     id="namedview1"
     pagecolor="#505050"
     bordercolor="#eeeeee"
     borderopacity="1"
     inkscape:showpageshadow="0"
     inkscape:pageopacity="0"
     inkscape:pagecheckerboard="0"
     inkscape:deskcolor="#505050"
     inkscape:zoom="4.9210829"
     inkscape:cx="124.15967"
     inkscape:cy="189.59242"
     inkscape:window-width="2560"
     inkscape:window-height="1368"
     inkscape:window-x="0"
     inkscape:window-y="0"
     inkscape:window-maximized="1"
     inkscape:current-layer="Layer_1" />
  <defs
     id="defs1">
    <style
       id="style1">
            .cls-1 {
                fill: none;
                stroke: #020202;
                stroke-miterlimit: 10;
                stroke-width: 1.88px;
            }
        </style>
  </defs>
  <path
     class="cls-1"
     d="M 52.568163,0.02411974 V 32.092166 l -1.027082,1.940063 A 193.20712,193.20712 0 0 0 31.113399,120.53605 v 0 a 21.568899,21.568899 0 0 0 18.373504,21.22654 l 57.060577,7.98848 v 74.97762 a 21.568899,21.568899 0 0 0 22.82423,21.22653 22.139505,22.139505 0 0 0 19.51472,-22.82423 V 106.95565 l 14.83575,14.83574 a 22.824232,22.824232 0 0 0 15.97696,6.61903 22.824232,22.824232 0 0 0 16.09108,-6.61903 22.824232,22.824232 0 0 0 0,-32.068039 L 138.72964,32.092166 V 0.02411974"
     id="path1"
     style="stroke:#000000;stroke-width:20.0648;stroke-linecap:butt;stroke-linejoin:miter;stroke-dasharray:none;stroke-opacity:1;paint-order:fill markers stroke" />
</svg>
